<svg xmlns="http://www.w3.org/2000/svg" viewBox="0 0 96.38 99.01"><defs><style>.cls-1{fill:#00cc54;}.cls-2,.cls-4{fill:none;stroke:#00cc54;stroke-linecap:round;stroke-linejoin:round;}.cls-2{stroke-width:0.5px;}.cls-3{fill:#0b0e0e;fill-rule:evenodd;}.cls-5{fill:#c1272d;opacity:0;}</style></defs><g id="Capa_2" data-name="Capa 2"><g id="Capa_1-2" data-name="Capa 1"><ellipse class="cls-1" cx="46.96" cy="45.26" rx="22.74" ry="23.3"/><ellipse class="cls-2" cx="46.96" cy="45.26" rx="22.74" ry="23.3"/><path class="cls-3" d="M47,31.52a10.66,10.66,0,1,1-10.4,10.66A10.54,10.54,0,0,1,47,31.52Z"/><path class="cls-4" d="M47,31.52a10.66,10.66,0,1,1-10.4,10.66A10.54,10.54,0,0,1,47,31.52Z"/><path class="cls-3" d="M23.37,40.92a6.87,6.87,0,1,1-6.7,6.86A6.78,6.78,0,0,1,23.37,40.92Z"/><path class="cls-4" d="M23.37,40.92a6.87,6.87,0,1,1-6.7,6.86A6.78,6.78,0,0,1,23.37,40.92Z"/><path class="cls-3" d="M70.55,40.92a6.87,6.87,0,1,1-6.71,6.86A6.78,6.78,0,0,1,70.55,40.92Z"/><path class="cls-4" d="M70.55,40.92a6.87,6.87,0,1,1-6.71,6.86A6.78,6.78,0,0,1,70.55,40.92Z"/><path class="cls-3" d="M11.1,67.57A12.43,12.43,0,0,1,23.37,55,12.43,12.43,0,0,1,35.65,67.57"/><path class="cls-4" d="M11.1,67.57A12.43,12.43,0,0,1,23.37,55,12.43,12.43,0,0,1,35.65,67.57"/><path class="cls-3" d="M58.27,67.57a12.28,12.28,0,1,1,24.55,0"/><path class="cls-4" d="M58.27,67.57a12.28,12.28,0,1,1,24.55,0"/><path class="cls-3" d="M27.91,73.36A19.29,19.29,0,0,1,47,53.85,19.29,19.29,0,0,1,66,73.36"/><path class="cls-4" d="M27.91,73.36A19.29,19.29,0,0,1,47,53.85,19.29,19.29,0,0,1,66,73.36"/><rect class="cls-5" width="96.38" height="99.01"/></g></g></svg>