<svg xmlns="http://www.w3.org/2000/svg" viewBox="0 0 96.38 99.01"><defs><style>.cls-1{fill:#00cc54;}.cls-1,.cls-3{fill-rule:evenodd;}.cls-2{fill:none;stroke:#00cc54;stroke-linecap:round;stroke-linejoin:round;stroke-width:0.5px;}.cls-3{fill:#0b0e0e;}.cls-4{fill:#c1272d;opacity:0;}</style></defs><g id="Capa_2" data-name="Capa 2"><g id="Capa_1-2" data-name="Capa 1"><path class="cls-1" d="M47,18.64c12.55,0,22.74,10.44,22.74,23.29S59.51,65.23,47,65.23,24.22,54.79,24.22,41.93,34.41,18.64,47,18.64Z"/><path class="cls-2" d="M47,18.64c12.55,0,22.74,10.44,22.74,23.29S59.51,65.23,47,65.23,24.22,54.79,24.22,41.93,34.41,18.64,47,18.64Z"/><path class="cls-3" d="M47,28.19a10.66,10.66,0,1,1-10.4,10.66A10.54,10.54,0,0,1,47,28.19Z"/><path class="cls-2" d="M47,28.19a10.66,10.66,0,1,1-10.4,10.66A10.54,10.54,0,0,1,47,28.19Z"/><path class="cls-3" d="M27.91,70A19.3,19.3,0,0,1,47,50.52,19.3,19.3,0,0,1,66,70"/><path class="cls-2" d="M27.91,70A19.3,19.3,0,0,1,47,50.52,19.3,19.3,0,0,1,66,70"/><rect class="cls-4" width="96.38" height="99.01"/></g></g></svg>