<svg xmlns="http://www.w3.org/2000/svg" viewBox="0 0 68.5 71.5"><defs><style>.cls-1{fill:none;stroke:#00cc54;stroke-linecap:round;stroke-linejoin:round;stroke-width:0.5px;}.cls-2,.cls-4{fill:#00cc54;}.cls-2,.cls-3{fill-rule:evenodd;}.cls-3{fill:#0b0e0e;}</style></defs><g id="Capa_2" data-name="Capa 2"><g id="Capa_1-2" data-name="Capa 1"><line class="cls-1" x1="34.25" y1="36.41" x2="10.56" y2="60.69"/><line class="cls-1" x1="34.25" y1="36.41" x2="57.94" y2="60.69"/><line class="cls-1" x1="34.25" y1="9.29" x2="34.25" y2="36.41"/><path class="cls-2" d="M34.25.25a8.93,8.93,0,0,1,8.82,9,8.82,8.82,0,1,1-17.64,0A8.93,8.93,0,0,1,34.25.25Z"/><path class="cls-1" d="M34.25.25a8.93,8.93,0,0,1,8.82,9,8.82,8.82,0,1,1-17.64,0A8.93,8.93,0,0,1,34.25.25Z"/><path class="cls-3" d="M57.94,50.12a10.57,10.57,0,1,1-10.3,10.57A10.45,10.45,0,0,1,57.94,50.12Z"/><path class="cls-1" d="M57.94,50.12a10.57,10.57,0,1,1-10.3,10.57A10.45,10.45,0,0,1,57.94,50.12Z"/><path class="cls-3" d="M10.56,50.12a10.57,10.57,0,0,1,0,21.13,10.57,10.57,0,0,1,0-21.13Z"/><path class="cls-1" d="M10.56,50.12a10.57,10.57,0,0,1,0,21.13,10.57,10.57,0,0,1,0-21.13Z"/><ellipse class="cls-4" cx="57.94" cy="60.69" rx="5.57" ry="5.7"/><ellipse class="cls-1" cx="57.94" cy="60.69" rx="5.57" ry="5.7"/></g></g></svg>