<svg xmlns="http://www.w3.org/2000/svg" xmlns:xlink="http://www.w3.org/1999/xlink" viewBox="0 0 96.38 99.01"><defs><style>.cls-1,.cls-2,.cls-4{fill:none;}.cls-2,.cls-4{stroke:#00cc54;stroke-linecap:round;stroke-linejoin:round;}.cls-3,.cls-5{fill:#00cc54;}.cls-4{stroke-width:0.5px;}.cls-5,.cls-7{fill-rule:evenodd;}.cls-6{clip-path:url(#clip-path);}.cls-7,.cls-8{fill:#0b0e0e;}.cls-9{fill:#c1272d;opacity:0;}</style><clipPath id="clip-path"><ellipse class="cls-1" cx="46.96" cy="55.27" rx="19.69" ry="20.18"/></clipPath></defs><g id="Capa_2" data-name="Capa 2"><g id="Capa_1-2" data-name="Capa 1"><line class="cls-2" x1="46.96" y1="49.13" x2="15.03" y2="81.84"/><line class="cls-2" x1="46.96" y1="49.13" x2="78.88" y2="81.84"/><line class="cls-2" x1="46.96" y1="12.58" x2="46.96" y2="49.13"/><ellipse class="cls-3" cx="46.96" cy="12.58" rx="8.19" ry="8.39"/><ellipse class="cls-4" cx="46.96" cy="12.58" rx="8.19" ry="8.39"/><path class="cls-5" d="M78.88,72a9.81,9.81,0,1,1-9.57,9.81A9.7,9.7,0,0,1,78.88,72Z"/><path class="cls-4" d="M78.88,72a9.81,9.81,0,1,1-9.57,9.81A9.7,9.7,0,0,1,78.88,72Z"/><path class="cls-5" d="M15,72a9.81,9.81,0,0,1,0,19.62A9.81,9.81,0,0,1,15,72Z"/><path class="cls-4" d="M15,72a9.81,9.81,0,0,1,0,19.62A9.81,9.81,0,0,1,15,72Z"/><ellipse class="cls-3" cx="46.96" cy="55.27" rx="19.69" ry="20.18"/><g class="cls-6"><path class="cls-7" d="M30.46,79.61a16.5,16.5,0,1,1,33,0"/><path class="cls-4" d="M30.46,79.61a16.5,16.5,0,1,1,33,0"/></g><ellipse class="cls-4" cx="46.96" cy="55.27" rx="19.69" ry="20.18"/><ellipse class="cls-8" cx="46.96" cy="52.6" rx="9.01" ry="9.23"/><ellipse class="cls-4" cx="46.96" cy="52.6" rx="9.01" ry="9.23"/><rect class="cls-9" width="96.38" height="99.01"/></g></g></svg>